# xmcd
#
# Track frame offsets:
#	150
#	13505
#	29215
#	39420
#	54167
#	66687
#	79977
#	98677
#	112287
#	127437
#
# Disc length: 1959 seconds
#
# Revision: 0
# Processed by: cddbd v1.5.2PL0 Copyright (c) Steve Scherf et al.
# Submitted via: dBpowerAMP V4.0
#
DISCID=9407a50a
DTITLE=Kenny Rogers - Greatest Hits
DYEAR=1900
DGENRE=Country
TTITLE0=Kenny Rogers - Ruby Don't Take Your Love to Town
TTITLE1=Kenny Rogers - Good Lady of Toronto
TTITLE2=Kenny Rogers - Where Does Rosie Go
TTITLE3=Kenny Rogers - For the Good Times
TTITLE4=Kenny Rogers - Love Woman
TTITLE5=Kenny Rogers - Shine on Ruby Mountain
TTITLE6=Kenny Rogers - King of Oak Street
TTITLE7=Kenny Rogers - I'm Going to Sing a Sad Song to Suzie
TTITLE8=Kenny Rogers - Tell It All Brother
TTITLE9=Kenny Rogers - Lay It Down
EXTD=Kenny Rogers Greatist Hits
EXTT0=
EXTT1=
EXTT2=
EXTT3=
EXTT4=
EXTT5=
EXTT6=
EXTT7=
EXTT8=
EXTT9=
PLAYORDER=
